<svg width="38" height="30" viewBox="0 0 38 30" fill="none" xmlns="http://www.w3.org/2000/svg">
<g clip-path="url(#clip0_201_5361)">
<path d="M18.5388 23.1724C14.1447 23.1724 10.5877 19.7712 10.2604 15.4611L4.18338 10.7646C3.3845 11.7668 2.64935 12.8264 2.05614 13.985C1.92361 14.2472 1.85457 14.5368 1.85457 14.8305C1.85457 15.1243 1.92361 15.4139 2.05614 15.676C5.19776 21.8058 11.4173 25.9531 18.5388 25.9531C20.0977 25.9531 21.6016 25.7213 23.0511 25.3471L20.045 23.0212C19.5485 23.1171 19.0444 23.1677 18.5388 23.1724ZM36.7188 26.5382L30.3145 21.5885C32.2599 19.949 33.8599 17.939 35.0214 15.6754C35.154 15.4133 35.223 15.1237 35.223 14.8299C35.223 14.5362 35.154 14.2466 35.0214 13.9844C31.8798 7.85471 25.6603 3.7074 18.5388 3.7074C15.5562 3.71101 12.622 4.46188 10.0043 5.89141L2.63429 0.195015C2.53819 0.12023 2.42828 0.0651154 2.31087 0.0328213C2.19345 0.000527255 2.07082 -0.00831355 1.94999 0.00680409C1.82916 0.0219217 1.71249 0.0607015 1.60665 0.120927C1.50081 0.181153 1.40787 0.261645 1.33315 0.357802L0.195958 1.82173C0.0451038 2.01579 -0.022493 2.26182 0.00803458 2.50572C0.0385622 2.74961 0.164714 2.9714 0.358745 3.12229L34.4433 29.4654C34.5394 29.5402 34.6493 29.5953 34.7667 29.6276C34.8841 29.6599 35.0067 29.6688 35.1276 29.6537C35.2484 29.6385 35.3651 29.5998 35.4709 29.5395C35.5768 29.4793 35.6697 29.3988 35.7444 29.3027L36.8822 27.8387C37.033 27.6446 37.1005 27.3985 37.0699 27.1546C37.0392 26.9107 36.9129 26.689 36.7188 26.5382ZM26.0757 18.3119L23.799 16.552C23.9907 15.9978 24.0924 15.4165 24.1002 14.8302C24.1115 13.9718 23.9213 13.1228 23.545 12.3512C23.1686 11.5796 22.6165 10.9071 21.9331 10.3876C21.2496 9.8681 20.4539 9.51613 19.6097 9.35996C18.7656 9.20379 17.8966 9.24777 17.0725 9.48837C17.4219 9.96173 17.6108 10.5343 17.6119 11.1226C17.6032 11.3184 17.5733 11.5126 17.5227 11.7019L13.2583 8.40621C14.7396 7.16834 16.6084 6.48953 18.5388 6.48811C19.6345 6.4875 20.7195 6.70286 21.7319 7.12187C22.7443 7.54089 23.6642 8.15534 24.4389 8.9301C25.2137 9.70486 25.8281 10.6247 26.2471 11.6371C26.6662 12.6495 26.8815 13.7346 26.8809 14.8302C26.8809 16.0833 26.5745 17.2512 26.0757 18.3125V18.3119Z" fill="black"/>
</g>
<defs>
<clipPath id="clip0_201_5361">
<rect width="37.0761" height="29.6609" fill="white"/>
</clipPath>
</defs>
</svg>
