<svg width="34" height="30" viewBox="0 0 34 30" fill="none" xmlns="http://www.w3.org/2000/svg">
<g clip-path="url(#clip0_201_5359)">
<path d="M33.168 13.9847C30.0263 7.85495 23.8068 3.70764 16.6853 3.70764C9.56381 3.70764 3.34255 7.85785 0.202668 13.9853C0.0701455 14.2474 0.00109863 14.537 0.00109863 14.8308C0.00109863 15.1245 0.0701455 15.4141 0.202668 15.6763C3.34429 21.806 9.56381 25.9533 16.6853 25.9533C23.8068 25.9533 30.0281 21.8031 33.168 15.6757C33.3005 15.4135 33.3695 15.1239 33.3695 14.8302C33.3695 14.5364 33.3005 14.2468 33.168 13.9847ZM16.6853 23.1726C15.0354 23.1726 13.4225 22.6833 12.0507 21.7667C10.6788 20.8501 9.60959 19.5472 8.9782 18.0229C8.3468 16.4985 8.1816 14.8212 8.50348 13.203C8.82537 11.5848 9.61988 10.0984 10.7865 8.9317C11.9532 7.76503 13.4396 6.97052 15.0578 6.64864C16.6761 6.32676 18.3534 6.49196 19.8777 7.12336C21.402 7.75475 22.7049 8.82398 23.6215 10.1958C24.5382 11.5677 25.0274 13.1806 25.0274 14.8305C25.028 15.9261 24.8126 17.0111 24.3935 18.0235C23.9745 19.0359 23.36 19.9557 22.5853 20.7304C21.8105 21.5052 20.8907 22.1196 19.8783 22.5387C18.866 22.9577 17.781 23.1731 16.6853 23.1726ZM16.6853 9.26906C16.1889 9.276 15.6957 9.34985 15.2191 9.48862C15.612 10.0226 15.8005 10.6796 15.7505 11.3407C15.7005 12.0017 15.4153 12.6229 14.9465 13.0917C14.4777 13.5604 13.8565 13.8457 13.1955 13.8957C12.5345 13.9457 11.8774 13.7571 11.3435 13.3642C11.0394 14.4844 11.0943 15.6717 11.5004 16.759C11.9065 17.8463 12.6433 18.7789 13.6072 19.4256C14.5711 20.0722 15.7135 20.4003 16.8736 20.3636C18.0337 20.327 19.1531 19.9274 20.0742 19.2213C20.9954 18.5151 21.6719 17.5378 22.0085 16.4271C22.3452 15.3163 22.325 14.1279 21.9509 13.0291C21.5767 11.9304 20.8675 10.9767 19.9229 10.3022C18.9783 9.62764 17.846 9.26633 16.6853 9.26906Z" fill="black"/>
</g>
<defs>
<clipPath id="clip0_201_5359">
<rect width="33.3685" height="29.6609" fill="white"/>
</clipPath>
</defs>
</svg>
