<svg viewBox="195 45 290 213" xmlns="http://www.w3.org/2000/svg" role="img" aria-label="Media Tracker">
  <rect x="200" y="50" width="280" height="190" rx="18" fill="#1a1a2e" stroke="rgba(255,184,38,0.25)" stroke-width="1.5"/>
  <line x1="218" y1="68" x2="462" y2="68" stroke="#ffb826" stroke-width="1" stroke-opacity="0.35"/>
  <line x1="218" y1="76" x2="462" y2="76" stroke="#ffb826" stroke-width="0.5" stroke-opacity="0.15"/>
  <rect x="228" y="170" width="18" height="44" rx="3" fill="rgba(255,184,38,0.4)"/>
  <rect x="252" y="150" width="18" height="64" rx="3" fill="rgba(255,184,38,0.67)"/>
  <rect x="276" y="130" width="18" height="84" rx="3" fill="#ffb826"/>
  <rect x="300" y="145" width="18" height="69" rx="3" fill="rgba(255,184,38,0.67)"/>
  <rect x="324" y="118" width="18" height="96" rx="3" fill="#ffb826"/>
  <rect x="348" y="138" width="18" height="76" rx="3" fill="rgba(255,184,38,0.67)"/>
  <rect x="372" y="155" width="18" height="59" rx="3" fill="rgba(255,184,38,0.4)"/>
  <rect x="396" y="128" width="18" height="86" rx="3" fill="#ffb826"/>
  <rect x="420" y="143" width="18" height="71" rx="3" fill="rgba(255,184,38,0.67)"/>
  <line x1="218" y1="220" x2="462" y2="220" stroke="#ffb826" stroke-width="0.75" stroke-opacity="0.3"/>
  <circle cx="340" cy="148" r="34" fill="#ffb826" opacity="0.92"/>
  <polygon points="330,136 330,160 356,148" fill="#1a1a2e"/>
  <circle cx="436" cy="78" r="2.5" fill="#ffb826" opacity="0.5"/>
  <circle cx="446" cy="78" r="2.5" fill="#ffb826" opacity="0.3"/>
  <circle cx="456" cy="78" r="2.5" fill="#ffb826" opacity="0.15"/>
  <rect x="322" y="240" width="36" height="10" rx="3" fill="#ffb826" opacity="0.25"/>
  <rect x="300" y="249" width="80" height="5" rx="2.5" fill="#ffb826" opacity="0.18"/>
</svg>
